# xmcd CD database file
#
# Track frame offsets:
#	150
#	45041
#	101647
#	139287
#	177292
#	203285
#	236234
#	243378
#	274936
#	307383
#
# Disc length: 4430 seconds
#
# Revision: 0
# Processed by: cddbd v1.5.2PL0 Copyright (c) Steve Scherf et al.
# Submitted via: CDex 1.70beta2
#
DISCID=8b114c0a
DTITLE=David Binney - Graylen Epicenter
DYEAR=2011
DGENRE=Jazz
TTITLE0=All Of Time
TTITLE1=Graylen Epicenter
TTITLE2=Equality At Low Levels
TTITLE3=Everglow
TTITLE4=From This Far
TTITLE5=Terrorists And Movie Stars
TTITLE6=Same Stare, Different Thought
TTITLE7=Home
TTITLE8=Any Years Costume
TTITLE9=Waking To Waves
EXTD=YEAR: 2011
EXTT0=
EXTT1=
EXTT2=
EXTT3=
EXTT4=
EXTT5=
EXTT6=
EXTT7=
EXTT8=
EXTT9=
PLAYORDER=
